<?xml version="1.0" standalone="no"?>
<!DOCTYPE svg PUBLIC "-//W3C//DTD SVG 20010904//EN"
 "http://www.w3.org/TR/2001/REC-SVG-20010904/DTD/svg10.dtd">
<svg version="1.0" xmlns="http://www.w3.org/2000/svg"
 width="522.000000pt" height="522.000000pt" viewBox="0 0 522.000000 522.000000"
 preserveAspectRatio="xMidYMid meet">
<metadata>
Created by potrace 1.14, written by Peter Selinger 2001-2017
</metadata>
<g transform="translate(0.000000,522.000000) scale(0.100000,-0.100000)"
fill="#000000" stroke="none">
<path d="M2515 4586 c-27 -12 -140 -76 -250 -141 -173 -102 -594 -349 -1183
-692 -101 -59 -173 -108 -192 -131 -62 -75 -60 -41 -60 -987 0 -988 -5 -932
83 -1019 31 -30 103 -79 177 -122 112 -63 390 -226 780 -457 74 -44 149 -88
165 -97 17 -10 93 -55 170 -100 345 -205 378 -218 469 -186 28 10 90 37 138
61 50 25 84 37 81 29 -3 -8 -9 -12 -13 -9 -4 3 -19 -4 -31 -16 -13 -11 -19
-18 -12 -15 6 4 14 2 18 -4 3 -5 31 -10 61 -10 42 0 54 3 54 15 0 28 47 65 82
65 22 0 39 7 48 20 8 11 22 20 32 20 10 0 18 5 18 11 0 8 17 10 50 7 54 -5 70
4 70 39 0 18 6 23 26 23 17 0 28 6 31 20 3 11 14 20 24 20 12 0 19 7 19 20 0
16 7 20 38 20 26 0 42 6 52 20 8 11 20 20 28 20 16 0 62 45 62 60 0 6 -7 13
-15 16 -19 8 -20 24 -1 24 7 0 25 9 39 20 31 24 38 25 30 4 -5 -13 -2 -15 18
-9 13 4 26 12 27 16 2 5 17 9 33 9 16 0 29 5 29 10 0 6 7 10 16 10 25 0 44 26
44 60 0 24 -4 31 -15 26 -26 -10 -16 3 14 19 22 11 32 12 37 3 4 -6 3 -8 -2
-5 -14 8 -34 -7 -26 -19 10 -16 52 -28 52 -15 0 6 14 11 30 11 29 0 30 2 27
35 -2 19 -7 38 -11 42 -4 5 -6 4 -4 -2 2 -5 0 -11 -5 -12 -4 -2 -8 0 -9 5 -1
8 121 82 137 82 6 0 3 -5 -5 -11 -13 -9 -13 -10 0 -6 8 2 15 9 15 16 0 18 143
103 158 95 7 -4 9 -4 5 1 -5 5 8 19 27 32 38 26 50 29 39 11 -4 -8 -3 -10 2
-5 5 5 9 12 9 15 0 4 24 31 52 59 87 89 82 29 85 1013 3 987 8 930 -77 1014
-51 50 -112 88 -730 446 -126 74 -279 163 -340 198 -60 36 -182 106 -270 157
-88 51 -182 106 -210 122 -101 60 -160 67 -240 29z m184 -730 c44 -23 99 -74
119 -110 15 -28 17 -87 20 -595 2 -383 -1 -580 -8 -616 -23 -111 -108 -179
-225 -179 -109 0 -203 71 -226 171 -4 21 -9 295 -9 610 -1 517 0 574 15 605
32 62 84 106 155 129 36 12 122 3 159 -15z m-943 -344 c22 -11 51 -33 66 -49
58 -60 58 -64 58 -530 0 -491 3 -513 77 -663 75 -151 216 -279 381 -346 186
-75 413 -70 577 11 160 80 273 194 346 350 71 151 72 166 73 650 1 424 1 431
23 471 42 78 131 134 216 134 75 0 167 -62 207 -140 19 -37 20 -60 20 -478 0
-341 -3 -458 -15 -523 -54 -311 -231 -576 -507 -759 -187 -124 -349 -182 -564
-201 -459 -41 -922 190 -1148 574 -62 105 -102 209 -125 322 -18 91 -20 143
-22 560 -2 447 -1 462 19 500 27 53 90 113 138 131 50 18 129 12 180 -14z
m2084 -2212 c0 -5 -7 -10 -16 -10 -8 0 -12 5 -9 10 3 6 10 10 16 10 5 0 9 -4
9 -10z m-119 -63 c-6 -8 -8 -17 -4 -21 4 -4 0 -4 -9 -1 -8 3 -22 0 -29 -7 -8
-7 -40 -26 -72 -43 -32 -16 -69 -39 -81 -50 -13 -12 -28 -19 -34 -17 -7 2 -12
-1 -12 -6 0 -6 -10 -14 -22 -18 -22 -7 -22 -7 -3 -16 17 -7 16 -8 -5 -4 -26 5
-77 -17 -72 -30 1 -4 -5 -9 -15 -10 -25 -4 -63 -26 -58 -34 2 -4 -2 -7 -10 -7
-8 0 -15 3 -15 6 0 6 439 270 449 271 2 0 -2 -6 -8 -13z m-471 -277 c-29 -23
-130 -77 -115 -62 11 11 127 81 135 81 3 0 -6 -8 -20 -19z m-35 -60 c3 -5 1
-10 -4 -10 -6 0 -11 5 -11 10 0 6 2 10 4 10 3 0 8 -4 11 -10z m-98 -32 c0 -13
-1 -17 -4 -10 -3 6 -9 12 -14 12 -6 0 -7 -4 -4 -10 4 -6 -1 -7 -11 -3 -14 5
-13 8 7 19 13 7 24 13 24 14 1 0 1 -10 2 -22z m-69 -28 c-7 -11 -21 -20 -30
-20 -10 0 -18 -4 -18 -10 0 -5 -8 -10 -17 -10 -15 0 -16 -2 -3 -10 13 -9 13
-10 0 -11 -8 -1 -19 -1 -24 0 -4 1 -14 -4 -22 -10 -8 -7 -17 -9 -20 -7 -4 4
126 92 144 97 1 1 -3 -8 -10 -19z"/>
<path d="M4075 1440 c-10 -11 -23 -17 -29 -13 -8 4 -8 3 0 -6 14 -15 41 -4 47
20 6 24 4 24 -18 -1z"/>
<path d="M3950 1360 c0 -5 -8 -10 -17 -10 -10 0 -25 -5 -33 -11 -12 -9 -12
-10 4 -5 11 4 22 2 25 -3 4 -5 17 1 30 15 18 19 20 24 7 24 -9 0 -16 -4 -16
-10z"/>
<path d="M3167 803 c-4 -3 -7 -13 -7 -22 0 -12 3 -11 14 4 8 12 20 16 35 12
11 -3 21 -1 21 4 0 10 -53 12 -63 2z"/>
</g>
</svg>
